<svg width="19" height="20" viewBox="0 0 19 20" fill="none" xmlns="http://www.w3.org/2000/svg">
<path d="M15.037 19.1875C14.2364 19.1875 13.1117 18.8979 11.4276 17.957C9.3797 16.8086 7.79568 15.7483 5.75884 13.7168C3.79501 11.7542 2.83935 10.4836 1.50183 8.04969C-0.00918397 5.30165 0.248394 3.86118 0.536324 3.24553C0.879214 2.50971 1.38535 2.06961 2.03955 1.6328C2.41113 1.38934 2.80435 1.18065 3.21423 1.00936C3.25525 0.991724 3.29339 0.974908 3.32744 0.959732C3.53046 0.868267 3.83808 0.730044 4.22773 0.877701C4.48777 0.975318 4.71992 1.17506 5.08332 1.53395C5.82857 2.26895 6.84699 3.90588 7.22269 4.70979C7.47494 5.25161 7.64187 5.60926 7.64228 6.0104C7.64228 6.48002 7.40603 6.84219 7.11933 7.23307C7.0656 7.30649 7.01228 7.37663 6.9606 7.44471C6.64847 7.85487 6.57998 7.9734 6.62509 8.18504C6.71656 8.61038 7.39865 9.87653 8.5196 10.995C9.64056 12.1135 10.8702 12.7525 11.2972 12.8436C11.5178 12.8908 11.6388 12.8194 12.0621 12.4962C12.1228 12.4498 12.1852 12.4019 12.2504 12.3539C12.6876 12.0286 13.033 11.7985 13.4915 11.7985H13.494C13.8931 11.7985 14.2347 11.9716 14.8007 12.2571C15.539 12.6295 17.2252 13.6348 17.9647 14.3809C18.3244 14.7434 18.525 14.9748 18.623 15.2344C18.7706 15.6253 18.6316 15.9317 18.541 16.1367C18.5258 16.1708 18.509 16.2081 18.4913 16.2495C18.3187 16.6587 18.1088 17.0511 17.8642 17.4218C17.4282 18.0739 16.9865 18.5788 16.249 18.9221C15.8703 19.1012 15.4559 19.192 15.037 19.1875Z" fill="#212322"/>
</svg>
