<svg width="14" height="18" viewBox="0 0 14 18" fill="none" xmlns="http://www.w3.org/2000/svg">
<path d="M6.99993 0.107178C8.84697 0.107178 10.6184 0.840913 11.9244 2.14697C13.2305 3.45303 13.9642 5.22442 13.9642 7.07146C13.9642 10.0143 11.8964 13.2215 7.81422 16.7272C7.58723 16.9222 7.29783 17.0293 6.99859 17.029C6.69936 17.0287 6.41014 16.9211 6.1835 16.7257L5.9135 16.4915C2.01207 13.0772 0.0356445 9.94861 0.0356445 7.07146C0.0356445 5.22442 0.76938 3.45303 2.07544 2.14697C3.38149 0.840913 5.15289 0.107178 6.99993 0.107178ZM6.99993 4.39289C6.28953 4.39289 5.60822 4.6751 5.10589 5.17743C4.60356 5.67976 4.32136 6.36106 4.32136 7.07146C4.32136 7.78187 4.60356 8.46317 5.10589 8.9655C5.60822 9.46783 6.28953 9.75004 6.99993 9.75004C7.71033 9.75004 8.39164 9.46783 8.89397 8.9655C9.3963 8.46317 9.6785 7.78187 9.6785 7.07146C9.6785 6.36106 9.3963 5.67976 8.89397 5.17743C8.39164 4.6751 7.71033 4.39289 6.99993 4.39289Z" fill="#212322"/>
</svg>
