<svg width="68" height="83" viewBox="0 0 68 83" fill="none" xmlns="http://www.w3.org/2000/svg">
<path d="M33.7768 0C42.7349 0 51.3262 3.55862 57.6606 9.89299C63.995 16.2274 67.5536 24.8186 67.5536 33.7768C67.5536 48.0496 57.5245 63.6043 37.7261 80.607C36.6252 81.5527 35.2216 82.0721 33.7703 82.0708C32.319 82.0695 30.9163 81.5477 29.8171 80.6001L28.5076 79.4638C9.58568 62.9045 0 47.7309 0 33.7768C0 24.8186 3.55862 16.2274 9.89299 9.89299C16.2274 3.55862 24.8186 0 33.7768 0ZM33.7768 20.7857C30.3313 20.7857 27.027 22.1544 24.5907 24.5907C22.1544 27.027 20.7857 30.3313 20.7857 33.7768C20.7857 37.2222 22.1544 40.5266 24.5907 42.9629C27.027 45.3992 30.3313 46.7679 33.7768 46.7679C37.2222 46.7679 40.5266 45.3992 42.9629 42.9629C45.3992 40.5266 46.7679 37.2222 46.7679 33.7768C46.7679 30.3313 45.3992 27.027 42.9629 24.5907C40.5266 22.1544 37.2222 20.7857 33.7768 20.7857Z" fill="#3A3B3A"/>
</svg>
